<svg width="61" height="61" viewBox="0 0 61 61" fill="none" xmlns="http://www.w3.org/2000/svg">
<path fill-rule="evenodd" clip-rule="evenodd" d="M30.5017 60.2262C29.0569 60.2262 27.6031 60.1251 26.1493 59.914C13.4545 58.0797 3.17983 47.9923 1.16413 35.3838C-0.381829 25.7335 2.65955 16.2823 9.50044 9.45629C16.3383 2.62731 25.8044 -0.39029 35.4488 1.17054C47.4984 3.12082 57.2112 12.4679 59.6193 24.4313C61.0167 31.3732 60.0207 38.2914 56.7355 44.4396C56.5958 44.7042 56.3847 45.2304 56.5571 45.7536L59.1407 53.4953C59.6758 55.1067 59.2656 56.8548 58.0615 58.0589C57.4767 58.6458 56.7395 59.0575 55.9332 59.2477C55.1268 59.4379 54.2833 59.3989 53.4979 59.1351L45.7532 56.5545C45.233 56.3821 44.7127 56.5932 44.4451 56.7329C40.1583 59.0286 35.3704 60.2286 30.5077 60.2262H30.5017ZM20.9465 36.6384C18.4343 36.6384 17.3848 34.8249 17.3848 30.3773C17.3848 25.9327 18.4343 24.1191 20.9465 24.1191C23.4587 24.1191 24.5141 25.9327 24.5141 30.3773C24.5141 34.8219 23.4587 36.6354 20.9465 36.6354V36.6384ZM36.4894 30.3773C36.4894 34.8219 37.5418 36.6354 40.057 36.6354C42.5662 36.6354 43.6157 34.8219 43.6157 30.3803C43.6157 25.9356 42.5662 24.1191 40.054 24.1191C37.5418 24.1191 36.4894 25.9327 36.4894 30.3773Z" fill="white"/>
</svg>
