<svg width="24" height="24" viewBox="0 0 24 24" fill="none" xmlns="http://www.w3.org/2000/svg">
<path d="M20.1955 7.5432C20.0971 7.6048 17.7547 8.9048 17.7547 11.7872C17.8651 15.0744 20.7107 16.2272 20.7595 16.2272C20.7107 16.2888 20.3299 17.7976 19.2019 19.3792C18.3067 20.7416 17.3131 22.1152 15.8043 22.1152C14.3691 22.1152 13.8539 21.2072 12.1979 21.2072C10.4195 21.2072 9.91629 22.1152 8.55469 22.1152C7.04589 22.1152 5.97869 20.668 5.03469 19.3184C3.80829 17.552 2.76589 14.78 2.72909 12.1184C2.70429 10.708 2.97469 9.3216 3.66109 8.144C4.62989 6.5 6.35949 5.384 8.24829 5.3472C9.69549 5.2984 10.9835 6.3408 11.8667 6.3408C12.7131 6.3408 14.2955 5.3472 16.0859 5.3472C16.8587 5.348 18.9195 5.5808 20.1955 7.5432ZM11.7443 5.0656C11.4867 3.7776 12.1979 2.4896 12.8603 1.668C13.7067 0.6744 15.0435 0 16.1963 0C16.2699 1.288 15.8035 2.5512 14.9699 3.4712C14.2219 4.4648 12.9339 5.2128 11.7443 5.0656Z" fill="#424242"/>
</svg>
