<svg width="24" height="24" viewBox="0 0 24 24" fill="none" xmlns="http://www.w3.org/2000/svg">
<path d="M12.94 12.0001L3.655 21.2851C3.55 21.0651 3.5 20.8251 3.5 20.5751V3.42509C3.5 3.17509 3.55 2.93509 3.655 2.71509L12.94 12.0001Z" fill="#424242"/>
<path d="M13.9999 13.0601L17.1049 16.1651L6.07992 22.1151C5.81992 22.2551 5.53492 22.3251 5.24992 22.3251C5.09492 22.3251 4.94492 22.3051 4.79492 22.2651L13.9999 13.0601Z" fill="#424242"/>
<path d="M13.9998 10.94L4.7998 1.74002C5.2248 1.62002 5.6798 1.67002 6.0798 1.88502L17.1048 7.83502L13.9998 10.94Z" fill="#424242"/>
<path d="M22.8946 12C22.8946 12.645 22.5396 13.235 21.9746 13.54L18.4846 15.425L15.0596 12L18.4846 8.57495L21.9746 10.46C22.5396 10.765 22.8946 11.355 22.8946 12Z" fill="#424242"/>
</svg>
